G04 MADE WITH FRITZING*
G04 WWW.FRITZING.ORG*
G04 DOUBLE SIDED*
G04 HOLES PLATED*
G04 CONTOUR ON CENTER OF CONTOUR VECTOR*
%FSLAX26Y26*%
%MOIN*%
%ADD10C,0.088000*%
%ADD11C,0.049370*%
%ADD12C,0.085000*%
%ADD13C,0.080000*%
%ADD14C,0.096614*%
%ADD15C,0.092000*%
%ADD16C,0.076000*%
%ADD17R,0.085000X0.085000*%
%ADD18R,0.092000X0.092000*%
%ADD19R,0.001000X0.001000*%
%G04MASK0*%
%FSLAX26Y26*%
%MOIN*%
D10*
X924023Y1889308D03*
X924023Y1668836D03*
X924023Y1889308D03*
X924023Y1668836D03*
X299025Y1889308D03*
X299025Y1668836D03*
X299025Y1889308D03*
X299025Y1668836D03*
X399025Y1668836D03*
X399025Y1889308D03*
X724025Y1889308D03*
X724025Y1668836D03*
X724025Y1889308D03*
X724025Y1668836D03*
X824025Y1668836D03*
X824025Y1889308D03*
D11*
X824296Y1138912D03*
X649018Y1214309D03*
D12*
X300444Y1319559D03*
X300444Y1219559D03*
X800444Y694560D03*
X800444Y994560D03*
X900444Y694560D03*
X900444Y994560D03*
X1000440Y694560D03*
X1000440Y994560D03*
X1100440Y694560D03*
X1100440Y994560D03*
D13*
X74022Y1764308D03*
X74022Y1564308D03*
X73111Y1238666D03*
X73111Y1438666D03*
D12*
X1025440Y1294559D03*
X625440Y1294559D03*
X375444Y669560D03*
X375444Y1069560D03*
X639622Y1069559D03*
X639622Y669560D03*
D14*
X75440Y69570D03*
X75440Y1894560D03*
X1125440Y69570D03*
X1125440Y1894560D03*
D12*
X500444Y1069564D03*
X500444Y669560D03*
D15*
X150444Y969559D03*
X150444Y869560D03*
X150444Y769560D03*
D11*
X899018Y1364309D03*
X499018Y1364309D03*
D16*
X462022Y339310D03*
X568022Y339310D03*
X674022Y339310D03*
D11*
X899774Y805730D03*
X570418Y802460D03*
X799022Y514310D03*
D17*
X300444Y1319559D03*
X800444Y694560D03*
D18*
X150444Y969559D03*
D19*
X424500Y377000D02*
X499500Y377000D01*
X424500Y376000D02*
X499500Y376000D01*
X424500Y375000D02*
X499500Y375000D01*
X424500Y374000D02*
X499500Y374000D01*
X424500Y373000D02*
X499500Y373000D01*
X424500Y372000D02*
X499500Y372000D01*
X424500Y371000D02*
X499500Y371000D01*
X424500Y370000D02*
X499500Y370000D01*
X424500Y369000D02*
X499500Y369000D01*
X424500Y368000D02*
X499500Y368000D01*
X424500Y367000D02*
X499500Y367000D01*
X424500Y366000D02*
X499500Y366000D01*
X424500Y365000D02*
X499500Y365000D01*
X424500Y364000D02*
X499500Y364000D01*
X424500Y363000D02*
X499500Y363000D01*
X424500Y362000D02*
X499500Y362000D01*
X424500Y361000D02*
X499500Y361000D01*
X424500Y360000D02*
X499500Y360000D01*
X424500Y359000D02*
X499500Y359000D01*
X424500Y358000D02*
X499500Y358000D01*
X424500Y357000D02*
X499500Y357000D01*
X424500Y356000D02*
X499500Y356000D01*
X424500Y355000D02*
X499500Y355000D01*
X424500Y354000D02*
X499500Y354000D01*
X424500Y353000D02*
X499500Y353000D01*
X424500Y352000D02*
X499500Y352000D01*
X424500Y351000D02*
X499500Y351000D01*
X424500Y350000D02*
X499500Y350000D01*
X424500Y349000D02*
X459500Y349000D01*
X464500Y349000D02*
X499500Y349000D01*
X424500Y348000D02*
X456500Y348000D01*
X466500Y348000D02*
X499500Y348000D01*
X424500Y347000D02*
X455500Y347000D01*
X468500Y347000D02*
X499500Y347000D01*
X424500Y346000D02*
X454500Y346000D01*
X469500Y346000D02*
X499500Y346000D01*
X424500Y345000D02*
X453500Y345000D01*
X470500Y345000D02*
X499500Y345000D01*
X424500Y344000D02*
X452500Y344000D01*
X470500Y344000D02*
X499500Y344000D01*
X424500Y343000D02*
X452500Y343000D01*
X471500Y343000D02*
X499500Y343000D01*
X424500Y342000D02*
X452500Y342000D01*
X471500Y342000D02*
X499500Y342000D01*
X424500Y341000D02*
X451500Y341000D01*
X471500Y341000D02*
X499500Y341000D01*
X424500Y340000D02*
X451500Y340000D01*
X471500Y340000D02*
X499500Y340000D01*
X424500Y339000D02*
X451500Y339000D01*
X471500Y339000D02*
X499500Y339000D01*
X424500Y338000D02*
X451500Y338000D01*
X471500Y338000D02*
X499500Y338000D01*
X424500Y337000D02*
X452500Y337000D01*
X471500Y337000D02*
X499500Y337000D01*
X424500Y336000D02*
X452500Y336000D01*
X471500Y336000D02*
X499500Y336000D01*
X424500Y335000D02*
X452500Y335000D01*
X470500Y335000D02*
X499500Y335000D01*
X424500Y334000D02*
X453500Y334000D01*
X469500Y334000D02*
X499500Y334000D01*
X424500Y333000D02*
X454500Y333000D01*
X468500Y333000D02*
X499500Y333000D01*
X424500Y332000D02*
X455500Y332000D01*
X467500Y332000D02*
X499500Y332000D01*
X424500Y331000D02*
X457500Y331000D01*
X466500Y331000D02*
X499500Y331000D01*
X424500Y330000D02*
X499500Y330000D01*
X424500Y329000D02*
X499500Y329000D01*
X424500Y328000D02*
X499500Y328000D01*
X424500Y327000D02*
X499500Y327000D01*
X424500Y326000D02*
X499500Y326000D01*
X424500Y325000D02*
X499500Y325000D01*
X424500Y324000D02*
X499500Y324000D01*
X424500Y323000D02*
X499500Y323000D01*
X424500Y322000D02*
X499500Y322000D01*
X424500Y321000D02*
X499500Y321000D01*
X424500Y320000D02*
X499500Y320000D01*
X424500Y319000D02*
X499500Y319000D01*
X424500Y318000D02*
X499500Y318000D01*
X424500Y317000D02*
X499500Y317000D01*
X424500Y316000D02*
X499500Y316000D01*
X424500Y315000D02*
X499500Y315000D01*
X424500Y314000D02*
X499500Y314000D01*
X424500Y313000D02*
X499500Y313000D01*
X424500Y312000D02*
X499500Y312000D01*
X424500Y311000D02*
X499500Y311000D01*
X424500Y310000D02*
X499500Y310000D01*
X424500Y309000D02*
X499500Y309000D01*
X424500Y308000D02*
X499500Y308000D01*
X424500Y307000D02*
X499500Y307000D01*
X424500Y306000D02*
X499500Y306000D01*
X424500Y305000D02*
X499500Y305000D01*
X424500Y304000D02*
X499500Y304000D01*
X424500Y303000D02*
X499500Y303000D01*
X424500Y302000D02*
X499500Y302000D01*
D02*
G04 End of Mask0*
M02*