G04 MADE WITH FRITZING*
G04 WWW.FRITZING.ORG*
G04 DOUBLE SIDED*
G04 HOLES PLATED*
G04 CONTOUR ON CENTER OF CONTOUR VECTOR*
%FSLAX26Y26*%
%MOIN*%
%ADD10C,0.078000*%
%ADD11C,0.039370*%
%ADD12C,0.075000*%
%ADD13C,0.070000*%
%ADD14C,0.082000*%
%ADD15C,0.066000*%
%ADD16R,0.075000X0.075000*%
%ADD17R,0.082000X0.082000*%
%ADD18C,0.012000*%
%ADD19R,0.001000X0.001000*%
%G04COPPER1*%
%FSLAX26Y26*%
%MOIN*%
D10*
X924023Y1889308D03*
X924023Y1668836D03*
X924023Y1889308D03*
X924023Y1668836D03*
X724025Y1889308D03*
X724025Y1668836D03*
X724025Y1889308D03*
X724025Y1668836D03*
X824025Y1668836D03*
X824025Y1889308D03*
D11*
X824296Y1138912D03*
X649018Y1214309D03*
D12*
X300444Y1319559D03*
X300444Y1219559D03*
X800444Y694560D03*
X800444Y994560D03*
X900444Y694560D03*
X900444Y994560D03*
X1000440Y694560D03*
X1000440Y994560D03*
X1100440Y694560D03*
X1100440Y994560D03*
D13*
X74022Y1764308D03*
X74022Y1564308D03*
X73111Y1238666D03*
X73111Y1438666D03*
D12*
X1025440Y1294559D03*
X625440Y1294559D03*
X375444Y669560D03*
X375444Y1069560D03*
X639622Y1069559D03*
X639622Y669560D03*
X500444Y1069564D03*
X500444Y669560D03*
D14*
X150444Y969559D03*
X150444Y869560D03*
X150444Y769560D03*
D11*
X899018Y1364309D03*
X499018Y1364309D03*
X899774Y805730D03*
X570418Y802460D03*
D10*
X299025Y1889308D03*
X299025Y1668836D03*
X299025Y1889308D03*
X299025Y1668836D03*
X399025Y1668836D03*
X399025Y1889308D03*
D11*
X799022Y514310D03*
D15*
X462022Y339310D03*
X568022Y339310D03*
X674022Y339310D03*
X462022Y339310D03*
X568022Y339310D03*
X674022Y339310D03*
D16*
X300444Y1319559D03*
X800444Y694560D03*
D17*
X150444Y969559D03*
D18*
X705029Y1668457D02*
X499400Y1664349D01*
D02*
X499400Y1664349D02*
X424338Y1589287D01*
D02*
X424333Y1589287D02*
X424333Y1164681D01*
D02*
X424333Y1164681D02*
X383440Y1085128D01*
D02*
X824300Y1564639D02*
X910886Y1655109D01*
D02*
X824300Y1146787D02*
X824300Y1564639D01*
D02*
X648512Y1206451D02*
X640756Y1087023D01*
D02*
X905917Y1360505D02*
X1010120Y1303013D01*
D02*
X299102Y1649836D02*
X300373Y1337059D01*
D02*
X899053Y1356434D02*
X900381Y1012059D01*
D02*
X500360Y1087064D02*
X499060Y1356434D01*
D02*
X912793Y706960D02*
X1000360Y794890D01*
D02*
X1000360Y794890D02*
X1000440Y977055D01*
D02*
X651070Y682800D02*
X699972Y739340D01*
D02*
X699972Y739340D02*
X699972Y1239000D01*
D02*
X699972Y1239000D02*
X639475Y1284100D01*
D02*
X568097Y353810D02*
X570378Y794590D01*
D02*
X899806Y813600D02*
X900386Y977056D01*
D02*
X399025Y1687836D02*
X399025Y1870308D01*
D02*
X724025Y1870308D02*
X724025Y1687836D01*
D02*
X924023Y1687836D02*
X924023Y1870308D01*
D02*
X148855Y1490430D02*
X148855Y1115297D01*
D02*
X148855Y1115297D02*
X248228Y1013439D01*
D02*
X248228Y1013439D02*
X248228Y914070D01*
D02*
X248228Y914070D02*
X169558Y878260D01*
D02*
X84697Y1553770D02*
X148855Y1490430D01*
D02*
X799084Y522180D02*
X800306Y677060D01*
D02*
X873983Y339120D02*
X898841Y363970D01*
D02*
X688522Y339290D02*
X873983Y339120D01*
D02*
X898841Y363970D02*
X900360Y677060D01*
D19*
X429500Y372000D02*
X494500Y372000D01*
X429500Y371000D02*
X494500Y371000D01*
X429500Y370000D02*
X494500Y370000D01*
X429500Y369000D02*
X494500Y369000D01*
X429500Y368000D02*
X494500Y368000D01*
X429500Y367000D02*
X494500Y367000D01*
X429500Y366000D02*
X494500Y366000D01*
X429500Y365000D02*
X494500Y365000D01*
X429500Y364000D02*
X494500Y364000D01*
X429500Y363000D02*
X494500Y363000D01*
X429500Y362000D02*
X494500Y362000D01*
X429500Y361000D02*
X494500Y361000D01*
X429500Y360000D02*
X494500Y360000D01*
X429500Y359000D02*
X494500Y359000D01*
X429500Y358000D02*
X494500Y358000D01*
X429500Y357000D02*
X494500Y357000D01*
X429500Y356000D02*
X494500Y356000D01*
X429500Y355000D02*
X494500Y355000D01*
X429500Y354000D02*
X459500Y354000D01*
X464500Y354000D02*
X494500Y354000D01*
X429500Y353000D02*
X455500Y353000D01*
X468500Y353000D02*
X494500Y353000D01*
X429500Y352000D02*
X453500Y352000D01*
X469500Y352000D02*
X494500Y352000D01*
X429500Y351000D02*
X452500Y351000D01*
X471500Y351000D02*
X494500Y351000D01*
X429500Y350000D02*
X451500Y350000D01*
X472500Y350000D02*
X494500Y350000D01*
X429500Y349000D02*
X450500Y349000D01*
X473500Y349000D02*
X494500Y349000D01*
X429500Y348000D02*
X449500Y348000D01*
X474500Y348000D02*
X494500Y348000D01*
X429500Y347000D02*
X448500Y347000D01*
X474500Y347000D02*
X494500Y347000D01*
X429500Y346000D02*
X448500Y346000D01*
X475500Y346000D02*
X494500Y346000D01*
X429500Y345000D02*
X447500Y345000D01*
X475500Y345000D02*
X494500Y345000D01*
X429500Y344000D02*
X447500Y344000D01*
X476500Y344000D02*
X494500Y344000D01*
X429500Y343000D02*
X447500Y343000D01*
X476500Y343000D02*
X494500Y343000D01*
X429500Y342000D02*
X447500Y342000D01*
X476500Y342000D02*
X494500Y342000D01*
X429500Y341000D02*
X446500Y341000D01*
X476500Y341000D02*
X494500Y341000D01*
X429500Y340000D02*
X446500Y340000D01*
X476500Y340000D02*
X494500Y340000D01*
X429500Y339000D02*
X446500Y339000D01*
X476500Y339000D02*
X494500Y339000D01*
X429500Y338000D02*
X446500Y338000D01*
X476500Y338000D02*
X494500Y338000D01*
X429500Y337000D02*
X447500Y337000D01*
X476500Y337000D02*
X494500Y337000D01*
X429500Y336000D02*
X447500Y336000D01*
X476500Y336000D02*
X494500Y336000D01*
X429500Y335000D02*
X447500Y335000D01*
X475500Y335000D02*
X494500Y335000D01*
X429500Y334000D02*
X447500Y334000D01*
X475500Y334000D02*
X494500Y334000D01*
X429500Y333000D02*
X448500Y333000D01*
X475500Y333000D02*
X494500Y333000D01*
X429500Y332000D02*
X449500Y332000D01*
X474500Y332000D02*
X494500Y332000D01*
X429500Y331000D02*
X449500Y331000D01*
X473500Y331000D02*
X494500Y331000D01*
X429500Y330000D02*
X450500Y330000D01*
X472500Y330000D02*
X494500Y330000D01*
X429500Y329000D02*
X451500Y329000D01*
X471500Y329000D02*
X494500Y329000D01*
X429500Y328000D02*
X452500Y328000D01*
X470500Y328000D02*
X494500Y328000D01*
X429500Y327000D02*
X454500Y327000D01*
X469500Y327000D02*
X494500Y327000D01*
X429500Y326000D02*
X456500Y326000D01*
X466500Y326000D02*
X494500Y326000D01*
X429500Y325000D02*
X494500Y325000D01*
X429500Y324000D02*
X494500Y324000D01*
X429500Y323000D02*
X494500Y323000D01*
X429500Y322000D02*
X494500Y322000D01*
X429500Y321000D02*
X494500Y321000D01*
X429500Y320000D02*
X494500Y320000D01*
X429500Y319000D02*
X494500Y319000D01*
X429500Y318000D02*
X494500Y318000D01*
X429500Y317000D02*
X494500Y317000D01*
X429500Y316000D02*
X494500Y316000D01*
X429500Y315000D02*
X494500Y315000D01*
X429500Y314000D02*
X494500Y314000D01*
X429500Y313000D02*
X494500Y313000D01*
X429500Y312000D02*
X494500Y312000D01*
X429500Y311000D02*
X494500Y311000D01*
X429500Y310000D02*
X494500Y310000D01*
X429500Y309000D02*
X494500Y309000D01*
X429500Y308000D02*
X494500Y308000D01*
X429500Y307000D02*
X494500Y307000D01*
D02*
G04 End of Copper1*
M02*