G04 MADE WITH FRITZING*
G04 WWW.FRITZING.ORG*
G04 DOUBLE SIDED*
G04 HOLES PLATED*
G04 CONTOUR ON CENTER OF CONTOUR VECTOR*
%FSLAX26Y26*%
%MOIN*%
%ADD10C,0.078000*%
%ADD11C,0.039370*%
%ADD12C,0.075000*%
%ADD13C,0.070000*%
%ADD14C,0.082000*%
%ADD15C,0.066000*%
%ADD16R,0.075000X0.075000*%
%ADD17R,0.082000X0.082000*%
%ADD18C,0.012000*%
%ADD19R,0.001000X0.001000*%
%G04COPPER0*%
%FSLAX26Y26*%
%MOIN*%
D10*
X924023Y1889308D03*
X924023Y1668836D03*
X924023Y1889308D03*
X924023Y1668836D03*
X299025Y1889308D03*
X299025Y1668836D03*
X299025Y1889308D03*
X299025Y1668836D03*
X399025Y1668836D03*
X399025Y1889308D03*
X724025Y1889308D03*
X724025Y1668836D03*
X724025Y1889308D03*
X724025Y1668836D03*
X824025Y1668836D03*
X824025Y1889308D03*
D11*
X824296Y1138912D03*
X649018Y1214309D03*
D12*
X300444Y1319559D03*
X300444Y1219559D03*
X800444Y694560D03*
X800444Y994560D03*
X900444Y694560D03*
X900444Y994560D03*
X1000440Y694560D03*
X1000440Y994560D03*
X1100440Y694560D03*
X1100440Y994560D03*
D13*
X74022Y1764308D03*
X74022Y1564308D03*
X73111Y1238666D03*
X73111Y1438666D03*
D12*
X1025440Y1294559D03*
X625440Y1294559D03*
X375444Y669560D03*
X375444Y1069560D03*
X639622Y1069559D03*
X639622Y669560D03*
X500444Y1069564D03*
X500444Y669560D03*
D14*
X150444Y969559D03*
X150444Y869560D03*
X150444Y769560D03*
D11*
X899018Y1364309D03*
X499018Y1364309D03*
D15*
X462022Y339310D03*
X568022Y339310D03*
X674022Y339310D03*
D11*
X899774Y805730D03*
X570418Y802460D03*
X799022Y514310D03*
D16*
X300444Y1319559D03*
X800444Y694560D03*
D17*
X150444Y969559D03*
D18*
X317942Y1219296D02*
X641149Y1214427D01*
D02*
X524233Y870570D02*
X499757Y843650D01*
D02*
X1100710Y844300D02*
X1076010Y869000D01*
D02*
X800444Y869560D02*
X524236Y870580D01*
D02*
X1076010Y869000D02*
X800443Y869560D01*
D02*
X1100480Y712060D02*
X1100710Y844300D01*
D02*
X425244Y593940D02*
X925994Y594450D01*
D02*
X385070Y654950D02*
X425249Y593940D01*
D02*
X990864Y1009204D02*
X951078Y1070023D01*
D02*
X951078Y1070023D02*
X657123Y1069586D01*
D02*
X506896Y1364308D02*
X891148Y1364308D01*
D02*
X150527Y990559D02*
X151033Y1119773D01*
D02*
X151033Y1119773D02*
X175236Y1143976D01*
D02*
X175233Y1143976D02*
X816421Y1138975D01*
D02*
X990002Y680520D02*
X925999Y594450D01*
D02*
X171444Y769610D02*
X450742Y770190D01*
D02*
X450744Y770190D02*
X492697Y685250D01*
D02*
X88111Y1438675D02*
X1099350Y1439308D01*
D02*
X1099350Y1439308D02*
X1121910Y1389159D01*
D02*
X1121910Y1389159D02*
X1124210Y1069053D01*
D02*
X1124210Y1069053D02*
X1105760Y1011232D01*
D02*
X800444Y869560D02*
X800444Y977059D01*
D02*
X500375Y687060D02*
X499757Y843650D01*
D02*
X578296Y802540D02*
X891897Y805650D01*
D02*
X388023Y1653346D02*
X325242Y1564959D01*
D02*
X325242Y1564959D02*
X89022Y1564347D01*
D02*
X299542Y1764359D02*
X89022Y1764312D01*
D02*
X823535Y1764359D02*
X299542Y1764359D01*
D02*
X199078Y1319475D02*
X85737Y1246765D01*
D02*
X282944Y1319545D02*
X199078Y1319475D01*
D02*
X72583Y1223675D02*
X48414Y538290D01*
D02*
X48414Y538290D02*
X73258Y513450D01*
D02*
X73258Y513450D02*
X791148Y514300D01*
D02*
X299128Y1687836D02*
X299542Y1764359D01*
D02*
X299542Y1764359D02*
X299104Y1870309D01*
D02*
X823535Y1764359D02*
X823928Y1687836D01*
D02*
X823951Y1870309D02*
X823535Y1764359D01*
D19*
X429500Y372000D02*
X494500Y372000D01*
X429500Y371000D02*
X494500Y371000D01*
X429500Y370000D02*
X494500Y370000D01*
X429500Y369000D02*
X494500Y369000D01*
X429500Y368000D02*
X494500Y368000D01*
X429500Y367000D02*
X494500Y367000D01*
X429500Y366000D02*
X494500Y366000D01*
X429500Y365000D02*
X494500Y365000D01*
X429500Y364000D02*
X494500Y364000D01*
X429500Y363000D02*
X494500Y363000D01*
X429500Y362000D02*
X494500Y362000D01*
X429500Y361000D02*
X494500Y361000D01*
X429500Y360000D02*
X494500Y360000D01*
X429500Y359000D02*
X494500Y359000D01*
X429500Y358000D02*
X494500Y358000D01*
X429500Y357000D02*
X494500Y357000D01*
X429500Y356000D02*
X494500Y356000D01*
X429500Y355000D02*
X494500Y355000D01*
X429500Y354000D02*
X459500Y354000D01*
X464500Y354000D02*
X494500Y354000D01*
X429500Y353000D02*
X455500Y353000D01*
X468500Y353000D02*
X494500Y353000D01*
X429500Y352000D02*
X453500Y352000D01*
X469500Y352000D02*
X494500Y352000D01*
X429500Y351000D02*
X452500Y351000D01*
X471500Y351000D02*
X494500Y351000D01*
X429500Y350000D02*
X451500Y350000D01*
X472500Y350000D02*
X494500Y350000D01*
X429500Y349000D02*
X450500Y349000D01*
X473500Y349000D02*
X494500Y349000D01*
X429500Y348000D02*
X449500Y348000D01*
X474500Y348000D02*
X494500Y348000D01*
X429500Y347000D02*
X448500Y347000D01*
X474500Y347000D02*
X494500Y347000D01*
X429500Y346000D02*
X448500Y346000D01*
X475500Y346000D02*
X494500Y346000D01*
X429500Y345000D02*
X447500Y345000D01*
X475500Y345000D02*
X494500Y345000D01*
X429500Y344000D02*
X447500Y344000D01*
X476500Y344000D02*
X494500Y344000D01*
X429500Y343000D02*
X447500Y343000D01*
X476500Y343000D02*
X494500Y343000D01*
X429500Y342000D02*
X447500Y342000D01*
X476500Y342000D02*
X494500Y342000D01*
X429500Y341000D02*
X446500Y341000D01*
X476500Y341000D02*
X494500Y341000D01*
X429500Y340000D02*
X446500Y340000D01*
X476500Y340000D02*
X494500Y340000D01*
X429500Y339000D02*
X446500Y339000D01*
X476500Y339000D02*
X494500Y339000D01*
X429500Y338000D02*
X446500Y338000D01*
X476500Y338000D02*
X494500Y338000D01*
X429500Y337000D02*
X447500Y337000D01*
X476500Y337000D02*
X494500Y337000D01*
X429500Y336000D02*
X447500Y336000D01*
X476500Y336000D02*
X494500Y336000D01*
X429500Y335000D02*
X447500Y335000D01*
X475500Y335000D02*
X494500Y335000D01*
X429500Y334000D02*
X447500Y334000D01*
X475500Y334000D02*
X494500Y334000D01*
X429500Y333000D02*
X448500Y333000D01*
X475500Y333000D02*
X494500Y333000D01*
X429500Y332000D02*
X449500Y332000D01*
X474500Y332000D02*
X494500Y332000D01*
X429500Y331000D02*
X449500Y331000D01*
X473500Y331000D02*
X494500Y331000D01*
X429500Y330000D02*
X450500Y330000D01*
X472500Y330000D02*
X494500Y330000D01*
X429500Y329000D02*
X451500Y329000D01*
X471500Y329000D02*
X494500Y329000D01*
X429500Y328000D02*
X452500Y328000D01*
X470500Y328000D02*
X494500Y328000D01*
X429500Y327000D02*
X454500Y327000D01*
X469500Y327000D02*
X494500Y327000D01*
X429500Y326000D02*
X456500Y326000D01*
X466500Y326000D02*
X494500Y326000D01*
X429500Y325000D02*
X494500Y325000D01*
X429500Y324000D02*
X494500Y324000D01*
X429500Y323000D02*
X494500Y323000D01*
X429500Y322000D02*
X494500Y322000D01*
X429500Y321000D02*
X494500Y321000D01*
X429500Y320000D02*
X494500Y320000D01*
X429500Y319000D02*
X494500Y319000D01*
X429500Y318000D02*
X494500Y318000D01*
X429500Y317000D02*
X494500Y317000D01*
X429500Y316000D02*
X494500Y316000D01*
X429500Y315000D02*
X494500Y315000D01*
X429500Y314000D02*
X494500Y314000D01*
X429500Y313000D02*
X494500Y313000D01*
X429500Y312000D02*
X494500Y312000D01*
X429500Y311000D02*
X494500Y311000D01*
X429500Y310000D02*
X494500Y310000D01*
X429500Y309000D02*
X494500Y309000D01*
X429500Y308000D02*
X494500Y308000D01*
X429500Y307000D02*
X494500Y307000D01*
D02*
G04 End of Copper0*
M02*