; NON-PLATED HOLES START AT T1
; THROUGH (PLATED) HOLES START AT T100
M48
INCH
T1C0.086614
T100C0.015748
T101C0.035000
T102C0.038000
T103C0.042000
T104C0.030000
T105C0.029000
%
T1
X000754Y000695
X011254Y018945
X011254Y000695
X000754Y018945
T100
X008242Y011389
X007990Y005143
X006490Y012143
X008990Y013643
X004990Y013643
X008997Y008057
X005704Y008024
T101
X003754Y006695
X006254Y012945
X011004Y006945
X003754Y010695
X010004Y006945
X009004Y006945
X009004Y009945
X011004Y009945
X010004Y009945
X008004Y006945
X005004Y010695
X005004Y006695
X010254Y012945
X006396Y010695
X006396Y006695
X003004Y012195
X008004Y009945
X003004Y013195
T102
X007240Y018893
X002990Y016688
X007240Y016688
X002990Y018893
X009240Y018893
X003990Y018893
X008240Y018893
X009240Y016688
X003990Y016688
X008240Y016688
T103
X001504Y007695
X001504Y008695
X001504Y009695
T104
X000740Y017643
X000731Y014386
X000731Y012386
X000740Y015643
T105
X005680Y003393
X006740Y003393
X004620Y003393
T00
M30
